<svg width="20" height="23" viewBox="0 0 20 23" fill="none" xmlns="http://www.w3.org/2000/svg">
<path fill-rule="evenodd" clip-rule="evenodd" d="M13.2551 15.4556C13.2814 14.1933 13.6838 12.8893 13.9098 11.6495C14.3351 9.31553 14.7722 6.98222 15.2232 4.65303C15.314 4.18434 15.5124 3.61878 15.4435 3.1418C15.3182 2.27388 14.3871 1.77878 13.5944 2.18108C12.9612 2.50245 12.8709 3.30815 12.7105 3.9254L11.4666 8.51507C11.3348 9.03043 11.2274 9.58588 11.035 10.0822C10.9683 10.2542 10.8175 10.4779 10.5999 10.4001C10.3241 10.3013 10.3687 10.0232 10.4211 9.80221L10.8872 8.0673C11.2484 6.64568 11.6385 5.22586 12.035 3.81346C12.2424 3.07473 12.5499 2.2833 12.6234 1.51862C12.7153 0.561835 11.8146 -0.17645 10.88 0.0370159C10.0169 0.234156 9.87561 1.07982 9.66863 1.79848C9.15933 3.56714 8.65992 5.34059 8.17415 7.11578C8.01206 7.7081 7.87182 9.23906 7.09114 9.33016C6.29618 9.42279 6.20712 8.02343 6.08059 7.50758C5.64464 5.73093 5.43976 3.72363 4.76586 2.02237C4.50775 1.37078 3.70817 1.07283 3.07607 1.38919C2.29347 1.78088 2.43646 2.65881 2.5532 3.36568L3.44853 8.79493C3.54942 9.39033 3.67046 9.98705 3.74708 10.586C3.77497 10.804 3.78606 11.0906 3.52598 11.1789C3.01188 11.3535 2.96868 10.0893 2.92038 9.80242L2.38355 6.55607C2.30091 6.05568 2.29882 5.45068 2.07383 4.98886C1.6896 4.20016 0.458596 4.13686 0.106217 4.98886C-0.156148 5.62324 0.138423 6.52052 0.233243 7.17175C0.466506 8.77401 0.709114 10.3789 0.911055 11.9853C1.20817 14.3489 0.489296 16.9641 1.51029 19.2056C3.44649 23.4566 8.5565 23.8484 12.2938 21.799C13.8071 20.9692 14.8816 19.6725 16.0827 18.478L18.7404 15.7354C19.1118 15.3661 19.7888 14.8401 19.9477 14.3361C20.2645 13.331 19.0733 12.6185 18.2315 12.7037C16.8858 12.8399 15.9357 13.7804 14.8951 14.5529C14.3984 14.9217 13.9059 15.4497 13.2551 15.4556Z" fill="#979797"/>
</svg>
